<svg xmlns="http://www.w3.org/2000/svg" viewBox="0 0 600 600" role="img" aria-label="South Dayton TOP Soccer">
  <defs>
    <clipPath id="ballc"><circle cx="300" cy="300" r="150"/></clipPath>
    <path id="arcTop" d="M 48,300 A 252,252 0 0 1 552,300" fill="none"/>
    <path id="arcBot" d="M 48,300 A 252,252 0 0 0 552,300" fill="none"/>
  </defs>
  <circle cx="300" cy="300" r="298" fill="#14294a"/>
  <text fill="#ffffff" font-family="Arial, Helvetica, sans-serif" font-weight="700" font-size="46" letter-spacing="3"><textPath href="#arcTop" startOffset="50%" text-anchor="middle">SOUTH DAYTON</textPath></text>
  <text fill="#ffffff" font-family="Arial, Helvetica, sans-serif" font-weight="700" font-size="46" letter-spacing="3"><textPath href="#arcBot" startOffset="50%" text-anchor="middle">TOP SOCCER</textPath></text>
  <polygon points="50.6,338.0 54.3,347.9 64.8,348.4 56.6,355.0 59.4,365.2 50.6,359.3 41.8,365.2 44.6,355.0 36.3,348.4 46.9,347.9" fill="#c9a24a"/><polygon points="50.6,232.0 54.3,241.9 64.8,242.3 56.6,248.9 59.4,259.1 50.6,253.3 41.8,259.1 44.6,248.9 36.3,242.3 46.9,241.9" fill="#c9a24a"/><polygon points="549.4,232.0 553.1,241.9 563.7,242.3 555.4,248.9 558.2,259.1 549.4,253.3 540.6,259.1 543.4,248.9 535.2,242.3 545.7,241.9" fill="#c9a24a"/><polygon points="549.4,338.0 553.1,347.9 563.7,348.4 555.4,355.0 558.2,365.2 549.4,359.3 540.6,365.2 543.4,355.0 535.2,348.4 545.7,347.9" fill="#c9a24a"/>
  <circle cx="300" cy="300" r="198" fill="none" stroke="#ffffff" stroke-width="4.5"/>
  <circle cx="300" cy="300" r="172" fill="#14294a"/>
  <polygon points="300.0,111.5 301.7,115.7 306.2,116.0 302.8,118.9 303.8,123.3 300.0,120.9 296.2,123.3 297.2,118.9 293.8,116.0 298.3,115.7" fill="#c9a24a"/><polygon points="325.9,113.4 327.6,117.5 332.1,117.8 328.7,120.7 329.7,125.1 325.9,122.8 322.1,125.1 323.1,120.7 319.7,117.8 324.2,117.5" fill="#c9a24a"/><polygon points="351.3,118.9 353.0,123.0 357.5,123.4 354.0,126.3 355.1,130.6 351.3,128.3 347.5,130.6 348.5,126.3 345.1,123.4 349.6,123.0" fill="#c9a24a"/><polygon points="375.6,127.9 377.3,132.1 381.8,132.4 378.4,135.3 379.4,139.7 375.6,137.3 371.8,139.7 372.8,135.3 369.4,132.4 373.9,132.1" fill="#c9a24a"/><polygon points="398.4,140.4 400.1,144.5 404.6,144.9 401.2,147.8 402.2,152.2 398.4,149.8 394.6,152.2 395.6,147.8 392.2,144.9 396.7,144.5" fill="#c9a24a"/><polygon points="419.2,156.0 420.9,160.1 425.4,160.4 421.9,163.3 423.0,167.7 419.2,165.4 415.4,167.7 416.4,163.3 413.0,160.4 417.5,160.1" fill="#c9a24a"/><polygon points="437.5,174.3 439.3,178.5 443.7,178.8 440.3,181.7 441.4,186.1 437.5,183.7 433.7,186.1 434.8,181.7 431.4,178.8 435.8,178.5" fill="#c9a24a"/><polygon points="453.1,195.1 454.8,199.3 459.3,199.6 455.9,202.5 456.9,206.9 453.1,204.5 449.3,206.9 450.4,202.5 446.9,199.6 451.4,199.3" fill="#c9a24a"/><polygon points="465.6,217.9 467.3,222.0 471.7,222.4 468.3,225.3 469.4,229.7 465.6,227.3 461.7,229.7 462.8,225.3 459.4,222.4 463.8,222.0" fill="#c9a24a"/><polygon points="474.6,242.2 476.3,246.4 480.8,246.7 477.4,249.6 478.4,254.0 474.6,251.6 470.8,254.0 471.9,249.6 468.4,246.7 472.9,246.4" fill="#c9a24a"/><polygon points="480.1,267.6 481.9,271.8 486.3,272.1 482.9,275.0 484.0,279.4 480.1,277.0 476.3,279.4 477.4,275.0 474.0,272.1 478.4,271.8" fill="#c9a24a"/><polygon points="482.0,293.5 483.7,297.7 488.2,298.0 484.8,300.9 485.8,305.3 482.0,302.9 478.2,305.3 479.2,300.9 475.8,298.0 480.3,297.7" fill="#c9a24a"/><polygon points="480.1,319.4 481.9,323.6 486.3,323.9 482.9,326.8 484.0,331.2 480.1,328.8 476.3,331.2 477.4,326.8 474.0,323.9 478.4,323.6" fill="#c9a24a"/><polygon points="474.6,344.8 476.3,348.9 480.8,349.3 477.4,352.2 478.4,356.5 474.6,354.2 470.8,356.5 471.9,352.2 468.4,349.3 472.9,348.9" fill="#c9a24a"/><polygon points="465.6,369.1 467.3,373.3 471.7,373.6 468.3,376.5 469.4,380.9 465.6,378.5 461.7,380.9 462.8,376.5 459.4,373.6 463.8,373.3" fill="#c9a24a"/><polygon points="453.1,391.9 454.8,396.1 459.3,396.4 455.9,399.3 456.9,403.7 453.1,401.3 449.3,403.7 450.4,399.3 446.9,396.4 451.4,396.1" fill="#c9a24a"/><polygon points="437.5,412.7 439.3,416.8 443.7,417.2 440.3,420.1 441.4,424.4 437.5,422.1 433.7,424.4 434.8,420.1 431.4,417.2 435.8,416.8" fill="#c9a24a"/><polygon points="419.2,431.0 420.9,435.2 425.4,435.5 421.9,438.4 423.0,442.8 419.2,440.4 415.4,442.8 416.4,438.4 413.0,435.5 417.5,435.2" fill="#c9a24a"/><polygon points="398.4,446.6 400.1,450.8 404.6,451.1 401.2,454.0 402.2,458.4 398.4,456.0 394.6,458.4 395.6,454.0 392.2,451.1 396.7,450.8" fill="#c9a24a"/><polygon points="375.6,459.1 377.3,463.2 381.8,463.5 378.4,466.4 379.4,470.8 375.6,468.5 371.8,470.8 372.8,466.4 369.4,463.5 373.9,463.2" fill="#c9a24a"/><polygon points="351.3,468.1 353.0,472.3 357.5,472.6 354.0,475.5 355.1,479.9 351.3,477.5 347.5,479.9 348.5,475.5 345.1,472.6 349.6,472.3" fill="#c9a24a"/><polygon points="325.9,473.6 327.6,477.8 332.1,478.1 328.7,481.0 329.7,485.4 325.9,483.0 322.1,485.4 323.1,481.0 319.7,478.1 324.2,477.8" fill="#c9a24a"/><polygon points="300.0,475.5 301.7,479.7 306.2,480.0 302.8,482.9 303.8,487.3 300.0,484.9 296.2,487.3 297.2,482.9 293.8,480.0 298.3,479.7" fill="#c9a24a"/><polygon points="274.1,473.6 275.8,477.8 280.3,478.1 276.9,481.0 277.9,485.4 274.1,483.0 270.3,485.4 271.3,481.0 267.9,478.1 272.4,477.8" fill="#c9a24a"/><polygon points="248.7,468.1 250.4,472.3 254.9,472.6 251.5,475.5 252.5,479.9 248.7,477.5 244.9,479.9 246.0,475.5 242.5,472.6 247.0,472.3" fill="#c9a24a"/><polygon points="224.4,459.1 226.1,463.2 230.6,463.5 227.2,466.4 228.2,470.8 224.4,468.5 220.6,470.8 221.6,466.4 218.2,463.5 222.7,463.2" fill="#c9a24a"/><polygon points="201.6,446.6 203.3,450.8 207.8,451.1 204.4,454.0 205.4,458.4 201.6,456.0 197.8,458.4 198.8,454.0 195.4,451.1 199.9,450.8" fill="#c9a24a"/><polygon points="180.8,431.0 182.5,435.2 187.0,435.5 183.6,438.4 184.6,442.8 180.8,440.4 177.0,442.8 178.1,438.4 174.6,435.5 179.1,435.2" fill="#c9a24a"/><polygon points="162.5,412.7 164.2,416.8 168.6,417.2 165.2,420.1 166.3,424.4 162.5,422.1 158.6,424.4 159.7,420.1 156.3,417.2 160.7,416.8" fill="#c9a24a"/><polygon points="146.9,391.9 148.6,396.1 153.1,396.4 149.6,399.3 150.7,403.7 146.9,401.3 143.1,403.7 144.1,399.3 140.7,396.4 145.2,396.1" fill="#c9a24a"/><polygon points="134.4,369.1 136.2,373.3 140.6,373.6 137.2,376.5 138.3,380.9 134.4,378.5 130.6,380.9 131.7,376.5 128.3,373.6 132.7,373.3" fill="#c9a24a"/><polygon points="125.4,344.8 127.1,348.9 131.6,349.3 128.1,352.2 129.2,356.5 125.4,354.2 121.6,356.5 122.6,352.2 119.2,349.3 123.7,348.9" fill="#c9a24a"/><polygon points="119.9,319.4 121.6,323.6 126.0,323.9 122.6,326.8 123.7,331.2 119.9,328.8 116.0,331.2 117.1,326.8 113.7,323.9 118.1,323.6" fill="#c9a24a"/><polygon points="118.0,293.5 119.7,297.7 124.2,298.0 120.8,300.9 121.8,305.3 118.0,302.9 114.2,305.3 115.2,300.9 111.8,298.0 116.3,297.7" fill="#c9a24a"/><polygon points="119.9,267.6 121.6,271.8 126.0,272.1 122.6,275.0 123.7,279.4 119.9,277.0 116.0,279.4 117.1,275.0 113.7,272.1 118.1,271.8" fill="#c9a24a"/><polygon points="125.4,242.2 127.1,246.4 131.6,246.7 128.1,249.6 129.2,254.0 125.4,251.6 121.6,254.0 122.6,249.6 119.2,246.7 123.7,246.4" fill="#c9a24a"/><polygon points="134.4,217.9 136.2,222.0 140.6,222.4 137.2,225.3 138.3,229.7 134.4,227.3 130.6,229.7 131.7,225.3 128.3,222.4 132.7,222.0" fill="#c9a24a"/><polygon points="146.9,195.1 148.6,199.3 153.1,199.6 149.6,202.5 150.7,206.9 146.9,204.5 143.1,206.9 144.1,202.5 140.7,199.6 145.2,199.3" fill="#c9a24a"/><polygon points="162.5,174.3 164.2,178.5 168.6,178.8 165.2,181.7 166.3,186.1 162.5,183.7 158.6,186.1 159.7,181.7 156.3,178.8 160.7,178.5" fill="#c9a24a"/><polygon points="180.8,156.0 182.5,160.1 187.0,160.4 183.6,163.3 184.6,167.7 180.8,165.4 177.0,167.7 178.1,163.3 174.6,160.4 179.1,160.1" fill="#c9a24a"/><polygon points="201.6,140.4 203.3,144.5 207.8,144.9 204.4,147.8 205.4,152.2 201.6,149.8 197.8,152.2 198.8,147.8 195.4,144.9 199.9,144.5" fill="#c9a24a"/><polygon points="224.4,127.9 226.1,132.1 230.6,132.4 227.2,135.3 228.2,139.7 224.4,137.3 220.6,139.7 221.6,135.3 218.2,132.4 222.7,132.1" fill="#c9a24a"/><polygon points="248.7,118.9 250.4,123.0 254.9,123.4 251.5,126.3 252.5,130.6 248.7,128.3 244.9,130.6 246.0,126.3 242.5,123.4 247.0,123.0" fill="#c9a24a"/><polygon points="274.1,113.4 275.8,117.5 280.3,117.8 276.9,120.7 277.9,125.1 274.1,122.8 270.3,125.1 271.3,120.7 267.9,117.8 272.4,117.5" fill="#c9a24a"/>
  <g clip-path="url(#ballc)"><circle cx="300" cy="300" r="150" fill="#ffffff"/><polygon points="300.0,246.0 351.4,283.3 331.7,343.7 268.3,343.7 248.6,283.3" fill="#14294a"/><polygon points="344.1,239.3 324.5,178.9 375.8,141.6 427.2,178.9 407.6,239.3" fill="#14294a"/><polygon points="371.3,323.2 422.7,285.9 474.0,323.2 454.4,383.6 390.9,383.6" fill="#14294a"/><polygon points="300.0,375.0 351.4,412.3 331.7,472.7 268.3,472.7 248.6,412.3" fill="#14294a"/><polygon points="228.7,323.2 209.1,383.6 145.6,383.6 126.0,323.2 177.3,285.9" fill="#14294a"/><polygon points="255.9,239.3 192.4,239.3 172.8,178.9 224.2,141.6 275.5,178.9" fill="#14294a"/><g stroke="#14294a" stroke-width="5" stroke-linecap="round"><line x1="300.0" y1="246.0" x2="300.0" y2="150.0"/><line x1="351.4" y1="283.3" x2="442.7" y2="253.6"/><line x1="331.7" y1="343.7" x2="388.2" y2="421.4"/><line x1="268.3" y1="343.7" x2="211.8" y2="421.4"/><line x1="248.6" y1="283.3" x2="157.3" y2="253.6"/></g><path d="M250,355 q-22,-30 6,-58 q-14,30 24,46 q-18,4 -30,12 z" fill="#a32533"/></g>
  <circle cx="300" cy="300" r="150" fill="none" stroke="#14294a" stroke-width="4"/>
</svg>
