<svg xmlns="http://www.w3.org/2000/svg" viewBox="62 52 116 116" role="img" aria-label="South Dayton TOPSoccer">
  <defs><clipPath id="mc"><circle cx="120" cy="110" r="54"/></clipPath></defs>
  <circle cx="120" cy="110" r="54" fill="#ffffff"/>
  <g clip-path="url(#mc)">
    <polygon points="120.0,90.56 138.49,103.99 131.43,125.73 108.57,125.73 101.51,103.99" fill="#14294a"/>
    <polygon points="135.87,88.16 128.81,66.42 147.3,52.99 165.79,66.42 158.72,88.16" fill="#14294a"/>
    <polygon points="145.68,118.34 164.17,104.91 182.66,118.34 175.59,140.08 152.74,140.08" fill="#14294a"/>
    <polygon points="120.0,137.0 138.49,150.43 131.43,172.17 108.57,172.17 101.51,150.43" fill="#14294a"/>
    <polygon points="94.32,118.34 87.26,140.08 64.41,140.08 57.34,118.34 75.83,104.91" fill="#14294a"/>
    <polygon points="104.13,88.16 81.28,88.16 74.21,66.42 92.7,52.99 111.19,66.42" fill="#14294a"/>
    <g stroke="#14294a" stroke-width="2" stroke-linecap="round">
      <line x1="120.0" y1="90.56" x2="120.0" y2="56.0"/>
      <line x1="138.49" y1="103.99" x2="171.36" y2="93.31"/>
      <line x1="131.43" y1="125.73" x2="151.74" y2="153.68"/>
      <line x1="108.57" y1="125.73" x2="88.26" y2="153.68"/>
      <line x1="101.51" y1="103.99" x2="68.64" y2="93.31"/>
    </g>
  </g>
  <circle cx="120" cy="110" r="54" fill="none" stroke="#14294a" stroke-width="3"/>
</svg>
